<?xml version="1.0" encoding="UTF-8"?>
<svg width="22px" height="18px" viewBox="0 0 22 18" version="1.1" xmlns="http://www.w3.org/2000/svg" xmlns:xlink="http://www.w3.org/1999/xlink">
    <title>Icon_Copy</title>
    <g id="Page-1" stroke="none" stroke-width="1" fill="none" fill-rule="evenodd">
        <g id="Test-Project" transform="translate(-259.000000, -1239.000000)" fill="#000000">
            <g id="Component/Tab-Bar/Profile" transform="translate(0.000000, 1202.000000)">
                <g id="Stacked-Group" transform="translate(26.000000, 24.000000)">
                    <g id="Icons/24px/Browser" transform="translate(232.000000, 10.000000)">
                        <g id="Group" transform="translate(1.000000, 3.000000)">
                            <path d="M18,12 L18,2 C18,1.46957 17.7893,0.96086 17.4142,0.58579 C17.0391,0.21071 16.5304,0 16,0 L2,0 C1.46957,0 0.96086,0.21071 0.58579,0.58579 C0.21071,0.96086 0,1.46957 0,2 L0,12 C0,12.5304 0.21071,13.0391 0.58579,13.4142 C0.96086,13.7893 1.46957,14 2,14 L16,14 C16.5304,14 17.0391,13.7893 17.4142,13.4142 C17.7893,13.0391 18,12.5304 18,12 Z M2,4 L16,4 L16,12 L2,12 L2,4 Z M20,4 L20,14 C20,14.5304 19.7893,15.0391 19.4142,15.4142 C19.0391,15.7893 18.5304,16 18,16 L4,16 C4,16.5304 4.21071,17.0391 4.58579,17.4142 C4.96086,17.7893 5.46957,18 6,18 L18,18 C19.0609,18 20.0783,17.5786 20.8284,16.8284 C21.5786,16.0783 22,15.0609 22,14 L22,6 C22,5.46957 21.7893,4.96086 21.4142,4.58579 C21.0391,4.21071 20.5304,4 20,4 Z" id="Shape"></path>
                        </g>
                    </g>
                </g>
            </g>
        </g>
    </g>
</svg>