<?xml version="1.0" encoding="UTF-8"?>
<svg width="24px" height="24px" viewBox="0 0 24 24" version="1.1" xmlns="http://www.w3.org/2000/svg" xmlns:xlink="http://www.w3.org/1999/xlink">
    <title>Icons/24pt/ic_ps-controller</title>
    <g id="Icons/24pt/ic_ps-controller" stroke="none" stroke-width="1" fill="none" fill-rule="evenodd">
        <path d="M20,11 L19,11 L19,12 L17,12 L17,11 L16,11 L16,9 L17,9 L17,8 L19,8 L19,9 L20,9 L20,11 Z M14.5,15 C13.672,15 13,14.328 13,13.5 C13,12.672 13.672,12 14.5,12 C15.328,12 16,12.672 16,13.5 C16,14.328 15.328,15 14.5,15 L14.5,15 Z M9.5,15 C8.672,15 8,14.328 8,13.5 C8,12.672 8.672,12 9.5,12 C10.328,12 11,12.672 11,13.5 C11,14.328 10.328,15 9.5,15 L9.5,15 Z M7,12 L5,12 L5,11 L4,11 L4,9 L5,9 L5,8 L7,8 L7,9 L8,9 L8,11 L7,11 L7,12 Z M20.896,7.312 L20.8,7.077 L20.799,7.075 C20.096,6.387 19.141,6 18.146,6 L17,6 L16,7 L8,7 L7,6 L5.854,6 C4.859,6 3.904,6.387 3.201,7.075 L3.2,7.077 L3.104,7.312 C1.714,10.714 1,14.344 1,18.008 C1,19.108 1.911,20 3.035,20 L3.042,20 C3.273,20 3.543,19.91 3.806,19.783 C4.496,19.453 5.062,18.908 5.485,18.271 L7,16 L17,16 L18.515,18.271 C18.938,18.908 19.504,19.453 20.194,19.783 C20.457,19.91 20.727,20 20.958,20 L20.965,20 C22.089,20 23,19.108 23,18.008 C23,14.344 22.286,10.714 20.896,7.312 L20.896,7.312 Z" id="shape" fill="#000000"></path>
    </g>
</svg>