<?xml version="1.0" encoding="UTF-8"?>
<svg width="16px" height="16px" viewBox="0 0 16 16" version="1.1" xmlns="http://www.w3.org/2000/svg" xmlns:xlink="http://www.w3.org/1999/xlink">
    <title>Icon_Plus</title>
    <g id="Page-1" stroke="none" stroke-width="1" fill="none" fill-rule="evenodd">
        <g id="Test-Project" transform="translate(-194.000000, -1240.000000)" fill="#1E1F20">
            <g id="Component/Tab-Bar/Profile" transform="translate(0.000000, 1202.000000)">
                <g id="Stacked-Group" transform="translate(26.000000, 24.000000)">
                    <g id="Icons/24pt/ic_plus" transform="translate(164.000000, 10.000000)">
                        <g id="ic_plus">
                            <path d="M13.6305221,19.7188755 C13.4431058,19.9062918 13.2182062,20 12.9558233,20 L11.0441767,20 C10.7817938,20 10.5568942,19.9062918 10.3694779,19.7188755 C10.1820616,19.5314592 10.0883534,19.3065596 10.0883534,19.0441767 L10.0883534,13.9116466 L4.9558233,13.9116466 C4.69344043,13.9116466 4.46854083,13.8179384 4.2811245,13.6305221 C4.09370817,13.4431058 4,13.2182062 4,12.9558233 L4,11.0441767 C4,10.7817938 4.09370817,10.5568942 4.2811245,10.3694779 C4.46854083,10.1820616 4.69344043,10.0883534 4.9558233,10.0883534 L10.0883534,10.0883534 L10.0883534,4.9558233 C10.0883534,4.69344043 10.1820616,4.46854083 10.3694779,4.2811245 C10.5568942,4.09370817 10.7817938,4 11.0441767,4 L12.9558233,4 C13.2182062,4 13.4431058,4.09370817 13.6305221,4.2811245 C13.8179384,4.46854083 13.9116466,4.69344043 13.9116466,4.9558233 L13.9116466,10.0883534 L19.0441767,10.0883534 C19.3065596,10.0883534 19.5314592,10.1820616 19.7188755,10.3694779 C19.9062918,10.5568942 20,10.7817938 20,11.0441767 L20,12.9558233 C20,13.2182062 19.9062918,13.4431058 19.7188755,13.6305221 C19.5314592,13.8179384 19.3065596,13.9116466 19.0441767,13.9116466 L13.9116466,13.9116466 L13.9116466,19.0441767 C13.9116466,19.3065596 13.8179384,19.5314592 13.6305221,19.7188755 Z" id="Fill"></path>
                        </g>
                    </g>
                </g>
            </g>
        </g>
    </g>
</svg>