<?xml version="1.0" encoding="UTF-8"?>
<svg width="20px" height="20px" viewBox="0 0 20 20" version="1.1" xmlns="http://www.w3.org/2000/svg" xmlns:xlink="http://www.w3.org/1999/xlink">
    <title>Icon_User</title>
    <g id="Page-1" stroke="none" stroke-width="1" fill="none" fill-rule="evenodd">
        <g id="Test-Project" transform="translate(-328.000000, -1238.000000)" fill="#000000">
            <g id="Component/Tab-Bar/Profile" transform="translate(0.000000, 1202.000000)">
                <g id="Stacked-Group" transform="translate(26.000000, 24.000000)">
                    <g id="Icons/24px/Profile-2" transform="translate(300.000000, 10.000000)">
                        <g id="Group" transform="translate(2.000000, 2.000000)">
                            <path d="M4.9999,5.00000197 C4.9999,4.0111 5.29315,3.0444 5.84256,2.22215 C6.39196,1.39991 7.17286,0.75904 8.0865,0.3806 C9.0001,0.00217 10.0055,-0.09685 10.9754,0.09608 C11.9453,0.289 12.8362,0.76521 13.5354,1.46447 C14.2347,2.16373 14.7109,3.05465 14.9038,4.02455 C15.0968,4.99446 14.9977,5.99979 14.6193,6.91342 C14.2409,7.82705 13.6,8.6079 12.7778,9.1573 C11.9555,9.7068 10.9888,10.000002 9.9999,10.000002 C8.6738,10.000002 7.40205,9.4732 6.46437,8.5355 C5.52669,7.59785 4.9999,6.32609 4.9999,5.00000197 Z M19.8899,18.55 L17.9999,14.76 C17.5843,13.9305 16.946,13.2331 16.1566,12.7456 C15.3672,12.2582 14.4577,12 13.5299,12 L6.4699,12 C5.54212,12 4.63264,12.2582 3.84321,12.7456 C3.05379,13.2331 2.41555,13.9305 1.9999,14.76 L0.1099,18.55 C0.03319,18.7022 -0.00333,18.8715 0.00381,19.0419 C0.01094,19.2122 0.06149,19.3778 0.15067,19.5231 C0.23984,19.6684 0.36467,19.7885 0.5133,19.8719 C0.66194,19.9554 0.82944,19.9995 0.9999,20 L18.9999,20 C19.1704,19.9995 19.3379,19.9554 19.4865,19.8719 C19.6351,19.7885 19.76,19.6684 19.8491,19.5231 C19.9383,19.3778 19.9889,19.2122 19.996,19.0419 C20.0031,18.8715 19.9666,18.7022 19.8899,18.55 Z" id="Shape"></path>
                        </g>
                    </g>
                </g>
            </g>
        </g>
    </g>
</svg>